<mxfile host="app.diagrams.net" agent="Mozilla/5.0 (Windows NT 10.0; Win64; x64) AppleWebKit/537.36 (KHTML, like Gecko) Chrome/130.0.0.0 Safari/537.36" version="24.8.4">
  <diagram id="C5RBs43oDa-KdzZeNtuy" name="Page-1">
    <mxGraphModel dx="1290" dy="565" grid="1" gridSize="10" guides="1" tooltips="1" connect="1" arrows="1" fold="1" page="1" pageScale="1" pageWidth="827" pageHeight="1169" math="0" shadow="0">
      <root>
        <mxCell id="WIyWlLk6GJQsqaUBKTNV-0" />
        <mxCell id="WIyWlLk6GJQsqaUBKTNV-1" parent="WIyWlLk6GJQsqaUBKTNV-0" />
        <mxCell id="DUWAn_qAEXi4hWiRvQ3I-21" value="CreditCard" style="swimlane;fontStyle=0;align=center;verticalAlign=top;childLayout=stackLayout;horizontal=1;startSize=26;horizontalStack=0;resizeParent=1;resizeLast=0;collapsible=1;marginBottom=0;rounded=0;shadow=0;strokeWidth=1;" vertex="1" parent="WIyWlLk6GJQsqaUBKTNV-1">
          <mxGeometry x="518" y="130" width="300" height="236" as="geometry">
            <mxRectangle x="550" y="140" width="160" height="26" as="alternateBounds" />
          </mxGeometry>
        </mxCell>
        <mxCell id="DUWAn_qAEXi4hWiRvQ3I-22" value="name : String&#xa;&#xa;accountNumber  : String&#xa;&#xa;balance : double" style="text;align=left;verticalAlign=top;spacingLeft=4;spacingRight=4;overflow=hidden;rotatable=0;points=[[0,0.5],[1,0.5]];portConstraint=eastwest;rounded=0;shadow=0;html=0;" vertex="1" parent="DUWAn_qAEXi4hWiRvQ3I-21">
          <mxGeometry y="26" width="300" height="84" as="geometry" />
        </mxCell>
        <mxCell id="DUWAn_qAEXi4hWiRvQ3I-23" value="" style="line;html=1;strokeWidth=1;align=left;verticalAlign=middle;spacingTop=-1;spacingLeft=3;spacingRight=3;rotatable=0;labelPosition=right;points=[];portConstraint=eastwest;" vertex="1" parent="DUWAn_qAEXi4hWiRvQ3I-21">
          <mxGeometry y="110" width="300" height="8" as="geometry" />
        </mxCell>
        <mxCell id="DUWAn_qAEXi4hWiRvQ3I-24" value="CreditCard(name : String, accountNumber : String, balance : double)&#xa;&#xa;&#xa;Charge(amount : double) : void&#xa;&#xa;pay(amount : double) : void" style="text;align=left;verticalAlign=top;spacingLeft=4;spacingRight=4;overflow=hidden;rotatable=0;points=[[0,0.5],[1,0.5]];portConstraint=eastwest;" vertex="1" parent="DUWAn_qAEXi4hWiRvQ3I-21">
          <mxGeometry y="118" width="300" height="58" as="geometry" />
        </mxCell>
        <mxCell id="DUWAn_qAEXi4hWiRvQ3I-25" value="DebitCard" style="swimlane;fontStyle=0;align=center;verticalAlign=top;childLayout=stackLayout;horizontal=1;startSize=26;horizontalStack=0;resizeParent=1;resizeLast=0;collapsible=1;marginBottom=0;rounded=0;shadow=0;strokeWidth=1;" vertex="1" parent="WIyWlLk6GJQsqaUBKTNV-1">
          <mxGeometry x="150" y="130" width="300" height="236" as="geometry">
            <mxRectangle x="550" y="140" width="160" height="26" as="alternateBounds" />
          </mxGeometry>
        </mxCell>
        <mxCell id="DUWAn_qAEXi4hWiRvQ3I-26" value="name : String&#xa;&#xa;accountNumber  : String&#xa;&#xa;balance : double" style="text;align=left;verticalAlign=top;spacingLeft=4;spacingRight=4;overflow=hidden;rotatable=0;points=[[0,0.5],[1,0.5]];portConstraint=eastwest;rounded=0;shadow=0;html=0;" vertex="1" parent="DUWAn_qAEXi4hWiRvQ3I-25">
          <mxGeometry y="26" width="300" height="84" as="geometry" />
        </mxCell>
        <mxCell id="DUWAn_qAEXi4hWiRvQ3I-27" value="" style="line;html=1;strokeWidth=1;align=left;verticalAlign=middle;spacingTop=-1;spacingLeft=3;spacingRight=3;rotatable=0;labelPosition=right;points=[];portConstraint=eastwest;" vertex="1" parent="DUWAn_qAEXi4hWiRvQ3I-25">
          <mxGeometry y="110" width="300" height="8" as="geometry" />
        </mxCell>
        <mxCell id="DUWAn_qAEXi4hWiRvQ3I-28" value="deposit(amount : double) : void" style="text;align=left;verticalAlign=top;spacingLeft=4;spacingRight=4;overflow=hidden;rotatable=0;points=[[0,0.5],[1,0.5]];portConstraint=eastwest;" vertex="1" parent="DUWAn_qAEXi4hWiRvQ3I-25">
          <mxGeometry y="118" width="300" height="36" as="geometry" />
        </mxCell>
        <mxCell id="DUWAn_qAEXi4hWiRvQ3I-29" value="withdraw(amount : double) : void" style="text;align=left;verticalAlign=top;spacingLeft=4;spacingRight=4;overflow=hidden;rotatable=0;points=[[0,0.5],[1,0.5]];portConstraint=eastwest;" vertex="1" parent="DUWAn_qAEXi4hWiRvQ3I-25">
          <mxGeometry y="154" width="300" height="26" as="geometry" />
        </mxCell>
        <mxCell id="DUWAn_qAEXi4hWiRvQ3I-30" value="&lt;span style=&quot;text-align: left;&quot;&gt;CreditCard(name : String, accountNumber : String, balance : double)&lt;/span&gt;" style="text;html=1;align=center;verticalAlign=middle;resizable=0;points=[];autosize=1;strokeColor=none;fillColor=none;" vertex="1" parent="WIyWlLk6GJQsqaUBKTNV-1">
          <mxGeometry x="85" y="318" width="390" height="30" as="geometry" />
        </mxCell>
        <mxCell id="DUWAn_qAEXi4hWiRvQ3I-31" value="FixedAsset" style="swimlane;fontStyle=0;align=center;verticalAlign=top;childLayout=stackLayout;horizontal=1;startSize=50;horizontalStack=0;resizeParent=1;resizeLast=0;collapsible=1;marginBottom=0;rounded=0;shadow=0;strokeWidth=1;" vertex="1" parent="WIyWlLk6GJQsqaUBKTNV-1">
          <mxGeometry x="300" y="400" width="300" height="210" as="geometry">
            <mxRectangle x="550" y="140" width="160" height="26" as="alternateBounds" />
          </mxGeometry>
        </mxCell>
        <mxCell id="DUWAn_qAEXi4hWiRvQ3I-32" value="" style="line;html=1;strokeWidth=1;align=left;verticalAlign=middle;spacingTop=-1;spacingLeft=3;spacingRight=3;rotatable=0;labelPosition=right;points=[];portConstraint=eastwest;" vertex="1" parent="DUWAn_qAEXi4hWiRvQ3I-31">
          <mxGeometry y="50" width="300" height="160" as="geometry" />
        </mxCell>
        <mxCell id="DUWAn_qAEXi4hWiRvQ3I-33" style="edgeStyle=orthogonalEdgeStyle;rounded=0;orthogonalLoop=1;jettySize=auto;html=1;" edge="1" parent="WIyWlLk6GJQsqaUBKTNV-1" source="DUWAn_qAEXi4hWiRvQ3I-34">
          <mxGeometry relative="1" as="geometry">
            <mxPoint x="300" y="480" as="targetPoint" />
          </mxGeometry>
        </mxCell>
        <mxCell id="DUWAn_qAEXi4hWiRvQ3I-34" value="Gold" style="swimlane;fontStyle=0;align=center;verticalAlign=top;childLayout=stackLayout;horizontal=1;startSize=50;horizontalStack=0;resizeParent=1;resizeLast=0;collapsible=1;marginBottom=0;rounded=0;shadow=0;strokeWidth=1;" vertex="1" parent="WIyWlLk6GJQsqaUBKTNV-1">
          <mxGeometry x="30" y="640" width="300" height="210" as="geometry">
            <mxRectangle x="550" y="140" width="160" height="26" as="alternateBounds" />
          </mxGeometry>
        </mxCell>
        <mxCell id="DUWAn_qAEXi4hWiRvQ3I-35" value="" style="line;html=1;strokeWidth=1;align=left;verticalAlign=middle;spacingTop=-1;spacingLeft=3;spacingRight=3;rotatable=0;labelPosition=right;points=[];portConstraint=eastwest;" vertex="1" parent="DUWAn_qAEXi4hWiRvQ3I-34">
          <mxGeometry y="50" width="300" height="160" as="geometry" />
        </mxCell>
        <mxCell id="DUWAn_qAEXi4hWiRvQ3I-36" style="edgeStyle=orthogonalEdgeStyle;rounded=0;orthogonalLoop=1;jettySize=auto;html=1;entryX=0.75;entryY=1;entryDx=0;entryDy=0;" edge="1" parent="WIyWlLk6GJQsqaUBKTNV-1" source="DUWAn_qAEXi4hWiRvQ3I-37" target="DUWAn_qAEXi4hWiRvQ3I-31">
          <mxGeometry relative="1" as="geometry" />
        </mxCell>
        <mxCell id="DUWAn_qAEXi4hWiRvQ3I-37" value="House" style="swimlane;fontStyle=0;align=center;verticalAlign=top;childLayout=stackLayout;horizontal=1;startSize=50;horizontalStack=0;resizeParent=1;resizeLast=0;collapsible=1;marginBottom=0;rounded=0;shadow=0;strokeWidth=1;" vertex="1" parent="WIyWlLk6GJQsqaUBKTNV-1">
          <mxGeometry x="380" y="640" width="300" height="210" as="geometry">
            <mxRectangle x="550" y="140" width="160" height="26" as="alternateBounds" />
          </mxGeometry>
        </mxCell>
        <mxCell id="DUWAn_qAEXi4hWiRvQ3I-38" value="" style="line;html=1;strokeWidth=1;align=left;verticalAlign=middle;spacingTop=-1;spacingLeft=3;spacingRight=3;rotatable=0;labelPosition=right;points=[];portConstraint=eastwest;" vertex="1" parent="DUWAn_qAEXi4hWiRvQ3I-37">
          <mxGeometry y="50" width="300" height="160" as="geometry" />
        </mxCell>
        <mxCell id="DUWAn_qAEXi4hWiRvQ3I-39" style="edgeStyle=orthogonalEdgeStyle;rounded=0;orthogonalLoop=1;jettySize=auto;html=1;" edge="1" parent="WIyWlLk6GJQsqaUBKTNV-1" source="DUWAn_qAEXi4hWiRvQ3I-40" target="DUWAn_qAEXi4hWiRvQ3I-32">
          <mxGeometry relative="1" as="geometry" />
        </mxCell>
        <mxCell id="DUWAn_qAEXi4hWiRvQ3I-40" value="Jewerly" style="swimlane;fontStyle=0;align=center;verticalAlign=top;childLayout=stackLayout;horizontal=1;startSize=50;horizontalStack=0;resizeParent=1;resizeLast=0;collapsible=1;marginBottom=0;rounded=0;shadow=0;strokeWidth=1;" vertex="1" parent="WIyWlLk6GJQsqaUBKTNV-1">
          <mxGeometry x="740" y="640" width="300" height="210" as="geometry">
            <mxRectangle x="550" y="140" width="160" height="26" as="alternateBounds" />
          </mxGeometry>
        </mxCell>
        <mxCell id="DUWAn_qAEXi4hWiRvQ3I-41" value="" style="line;html=1;strokeWidth=1;align=left;verticalAlign=middle;spacingTop=-1;spacingLeft=3;spacingRight=3;rotatable=0;labelPosition=right;points=[];portConstraint=eastwest;" vertex="1" parent="DUWAn_qAEXi4hWiRvQ3I-40">
          <mxGeometry y="50" width="300" height="160" as="geometry" />
        </mxCell>
      </root>
    </mxGraphModel>
  </diagram>
</mxfile>
